<svg xmlns="http://www.w3.org/2000/svg" xmlns:xlink="http://www.w3.org/1999/xlink" width="500" zoomAndPan="magnify" viewBox="0 0 375 374.999991" height="500" preserveAspectRatio="xMidYMid meet" version="1.0"><defs><clipPath id="753c0a8dbc"><path d="M 73 9 L 141 9 L 141 76 L 73 76 Z M 73 9 " clip-rule="nonzero"/></clipPath><clipPath id="54be9007f5"><path d="M 95.085938 0.925781 L 148.605469 52.441406 L 102.855469 99.972656 L 49.335938 48.457031 Z M 95.085938 0.925781 " clip-rule="nonzero"/></clipPath><clipPath id="6f8c6f784f"><path d="M 95.085938 0.925781 L 148.605469 52.441406 L 102.855469 99.972656 L 49.335938 48.457031 Z M 95.085938 0.925781 " clip-rule="nonzero"/></clipPath><clipPath id="dd49795bce"><path d="M 96 27 L 122 27 L 122 52 L 96 52 Z M 96 27 " clip-rule="nonzero"/></clipPath><clipPath id="8ac8ac100f"><path d="M 122.253906 50.785156 L 95.875 53.257812 L 93.5 27.914062 L 119.878906 25.445312 Z M 122.253906 50.785156 " clip-rule="nonzero"/></clipPath><clipPath id="27cffb3e22"><path d="M 122.253906 50.785156 L 95.875 53.257812 L 93.5 27.914062 L 119.878906 25.445312 Z M 122.253906 50.785156 " clip-rule="nonzero"/></clipPath><clipPath id="cb68102d7f"><path d="M 122.253906 50.785156 L 95.875 53.257812 L 93.5 27.914062 L 119.878906 25.445312 Z M 122.253906 50.785156 " clip-rule="nonzero"/></clipPath><clipPath id="ddf84fa11e"><path d="M 73 73 L 141 73 L 141 141 L 73 141 Z M 73 73 " clip-rule="nonzero"/></clipPath><clipPath id="76d0e8688c"><path d="M 148.433594 96.089844 L 95.90625 148.617188 L 49.257812 101.96875 L 101.785156 49.441406 Z M 148.433594 96.089844 " clip-rule="nonzero"/></clipPath><clipPath id="36e3749496"><path d="M 148.433594 96.089844 L 95.90625 148.617188 L 49.257812 101.96875 L 101.785156 49.441406 Z M 148.433594 96.089844 " clip-rule="nonzero"/></clipPath><clipPath id="16eda81c01"><path d="M 98 97 L 123 97 L 123 122 L 98 122 Z M 98 97 " clip-rule="nonzero"/></clipPath><clipPath id="4979018d4c"><path d="M 98.699219 122.738281 L 96.207031 96.363281 L 121.546875 93.96875 L 124.039062 120.34375 Z M 98.699219 122.738281 " clip-rule="nonzero"/></clipPath><clipPath id="d562e1837b"><path d="M 98.699219 122.738281 L 96.207031 96.363281 L 121.546875 93.96875 L 124.039062 120.34375 Z M 98.699219 122.738281 " clip-rule="nonzero"/></clipPath><clipPath id="96bd4dd281"><path d="M 98.699219 122.738281 L 96.207031 96.363281 L 121.546875 93.96875 L 124.039062 120.34375 Z M 98.699219 122.738281 " clip-rule="nonzero"/></clipPath><clipPath id="c9d58049d2"><path d="M 9 73 L 77 73 L 77 141 L 9 141 Z M 9 73 " clip-rule="nonzero"/></clipPath><clipPath id="48f81168c2"><path d="M 52.664062 148.664062 L 0.820312 95.464844 L 48.066406 49.417969 L 99.910156 102.621094 Z M 52.664062 148.664062 " clip-rule="nonzero"/></clipPath><clipPath id="4c507bd803"><path d="M 52.664062 148.664062 L 0.820312 95.464844 L 48.066406 49.417969 L 99.910156 102.621094 Z M 52.664062 148.664062 " clip-rule="nonzero"/></clipPath><clipPath id="2b5c8462c5"><path d="M 26 97 L 52 97 L 52 122 L 26 122 Z M 26 97 " clip-rule="nonzero"/></clipPath><clipPath id="c904a769f9"><path d="M 25.46875 98.484375 L 51.769531 95.308594 L 54.824219 120.578125 L 28.519531 123.753906 Z M 25.46875 98.484375 " clip-rule="nonzero"/></clipPath><clipPath id="ddfdaa48a0"><path d="M 25.46875 98.484375 L 51.769531 95.308594 L 54.824219 120.578125 L 28.519531 123.753906 Z M 25.46875 98.484375 " clip-rule="nonzero"/></clipPath><clipPath id="22047c70fc"><path d="M 25.46875 98.484375 L 51.769531 95.308594 L 54.824219 120.578125 L 28.519531 123.753906 Z M 25.46875 98.484375 " clip-rule="nonzero"/></clipPath><clipPath id="0b580f9f2e"><path d="M 9 9 L 77 9 L 77 77 L 9 77 Z M 9 9 " clip-rule="nonzero"/></clipPath><clipPath id="34046a6dbe"><path d="M 1.042969 53.378906 L 53.570312 0.851562 L 100.21875 47.5 L 47.691406 100.027344 Z M 1.042969 53.378906 " clip-rule="nonzero"/></clipPath><clipPath id="82fa2eb4d4"><path d="M 1.042969 53.378906 L 53.570312 0.851562 L 100.21875 47.5 L 47.691406 100.027344 Z M 1.042969 53.378906 " clip-rule="nonzero"/></clipPath><clipPath id="50eb5cb998"><path d="M 28 26 L 54 26 L 54 51 L 28 51 Z M 28 26 " clip-rule="nonzero"/></clipPath><clipPath id="e320d8063f"><path d="M 50.9375 25.289062 L 55.300781 51.421875 L 30.195312 55.613281 L 25.832031 29.484375 Z M 50.9375 25.289062 " clip-rule="nonzero"/></clipPath><clipPath id="e891e46815"><path d="M 50.9375 25.289062 L 55.300781 51.421875 L 30.195312 55.613281 L 25.832031 29.484375 Z M 50.9375 25.289062 " clip-rule="nonzero"/></clipPath><clipPath id="00a02d534b"><path d="M 50.9375 25.289062 L 55.300781 51.421875 L 30.195312 55.613281 L 25.832031 29.484375 Z M 50.9375 25.289062 " clip-rule="nonzero"/></clipPath><clipPath id="86a5a6cd4e"><path d="M 64.964844 64.628906 L 84.300781 64.628906 L 84.300781 82.523438 L 64.964844 82.523438 Z M 64.964844 64.628906 " clip-rule="nonzero"/></clipPath><clipPath id="261aaa4b79"><path d="M 76.851562 66.503906 C 75.757812 73.253906 76.640625 78.8125 76.175781 80.683594 C 76.019531 81.410156 75.8125 81.878906 75.394531 82.191406 C 74.980469 82.449219 74.199219 82.605469 73.734375 82.398438 C 73.214844 82.136719 72.695312 81.515625 72.539062 80.683594 C 72.175781 78.867188 73.527344 72.683594 74.460938 71.488281 C 74.824219 71.019531 75.238281 70.917969 75.65625 70.867188 C 76.070312 70.8125 76.539062 70.867188 76.902344 71.175781 C 77.472656 71.644531 78.304688 74.136719 78.253906 74.191406 C 78.148438 74.242188 77.058594 73.097656 77.160156 72.890625 C 77.472656 72.371094 82.667969 72.890625 83.65625 73.722656 C 84.226562 74.242188 84.332031 75.28125 84.175781 75.800781 C 84.019531 76.320312 83.550781 76.789062 82.875 76.996094 C 81.421875 77.410156 76.695312 75.28125 75.03125 75.4375 C 74.253906 75.488281 74.148438 75.90625 73.371094 76.058594 C 71.863281 76.425781 67.707031 76.890625 66.460938 76.527344 C 65.890625 76.425781 65.578125 76.164062 65.316406 75.800781 C 65.058594 75.4375 64.902344 74.917969 65.007812 74.5 C 65.058594 73.980469 65.527344 73.253906 65.992188 72.996094 C 66.460938 72.789062 67.449219 72.789062 67.914062 73.097656 C 68.382812 73.464844 68.851562 74.65625 68.695312 75.28125 C 68.589844 75.800781 67.914062 76.371094 67.449219 76.527344 C 66.929688 76.683594 66.097656 76.476562 65.679688 76.164062 C 65.316406 75.957031 65.058594 75.59375 65.007812 75.175781 C 65.007812 74.605469 65.421875 73.359375 65.941406 73.046875 C 66.410156 72.734375 67.238281 72.734375 67.707031 72.996094 C 68.175781 73.203125 68.695312 73.929688 68.746094 74.449219 C 68.851562 74.96875 68.488281 75.75 68.121094 76.113281 C 67.863281 76.425781 67.292969 76.578125 66.875 76.578125 C 66.460938 76.632812 65.941406 76.425781 65.628906 76.113281 C 65.316406 75.851562 65.007812 75.386719 65.007812 74.96875 C 65.007812 74.398438 65.265625 73.515625 65.992188 72.996094 C 67.449219 71.957031 72.382812 71.488281 75.394531 71.644531 C 78.253906 71.800781 82.460938 72.683594 83.65625 73.722656 C 84.175781 74.191406 84.332031 74.867188 84.277344 75.386719 C 84.226562 75.90625 83.863281 76.527344 83.292969 76.839844 C 82.5625 77.253906 81.003906 77.203125 79.863281 77.152344 C 78.71875 77.097656 77.421875 76.839844 76.589844 76.578125 C 75.96875 76.371094 75.5 76.320312 75.136719 75.851562 C 74.5625 75.230469 73.992188 73.515625 73.992188 72.683594 C 74.042969 72.214844 74.148438 71.75 74.460938 71.488281 C 74.875 71.125 75.96875 70.761719 76.539062 70.96875 C 77.058594 71.175781 77.523438 72.007812 77.734375 72.683594 C 77.941406 73.464844 77.785156 74.292969 77.578125 75.386719 C 77.214844 77.152344 76.382812 81.359375 75.394531 82.191406 C 74.875 82.554688 74.199219 82.554688 73.734375 82.398438 C 73.265625 82.191406 72.851562 81.828125 72.589844 81.097656 C 71.914062 79.28125 72.226562 72.945312 72.695312 69.984375 C 73.058594 67.957031 73.472656 65.566406 74.355469 64.945312 C 74.824219 64.527344 75.707031 64.582031 76.121094 64.839844 C 76.589844 65.097656 76.851562 66.503906 76.851562 66.503906 " clip-rule="nonzero"/></clipPath><clipPath id="be44eb26e3"><path d="M 0.964844 0.628906 L 20.300781 0.628906 L 20.300781 18.523438 L 0.964844 18.523438 Z M 0.964844 0.628906 " clip-rule="nonzero"/></clipPath><clipPath id="663176b127"><path d="M 12.851562 2.503906 C 11.757812 9.253906 12.640625 14.8125 12.175781 16.683594 C 12.019531 17.410156 11.8125 17.878906 11.394531 18.191406 C 10.980469 18.449219 10.199219 18.605469 9.734375 18.398438 C 9.214844 18.136719 8.695312 17.515625 8.539062 16.683594 C 8.175781 14.867188 9.527344 8.683594 10.460938 7.488281 C 10.824219 7.019531 11.238281 6.917969 11.65625 6.867188 C 12.070312 6.8125 12.539062 6.867188 12.902344 7.175781 C 13.472656 7.644531 14.304688 10.136719 14.253906 10.191406 C 14.148438 10.242188 13.058594 9.097656 13.160156 8.890625 C 13.472656 8.371094 18.667969 8.890625 19.65625 9.722656 C 20.226562 10.242188 20.332031 11.28125 20.175781 11.800781 C 20.019531 12.320312 19.550781 12.789062 18.875 12.996094 C 17.421875 13.410156 12.695312 11.28125 11.03125 11.4375 C 10.253906 11.488281 10.148438 11.90625 9.371094 12.058594 C 7.863281 12.425781 3.707031 12.890625 2.460938 12.527344 C 1.890625 12.425781 1.578125 12.164062 1.316406 11.800781 C 1.058594 11.4375 0.902344 10.917969 1.007812 10.5 C 1.058594 9.980469 1.527344 9.253906 1.992188 8.996094 C 2.460938 8.789062 3.449219 8.789062 3.914062 9.097656 C 4.382812 9.464844 4.851562 10.65625 4.695312 11.28125 C 4.589844 11.800781 3.914062 12.371094 3.449219 12.527344 C 2.929688 12.683594 2.097656 12.476562 1.679688 12.164062 C 1.316406 11.957031 1.058594 11.59375 1.007812 11.175781 C 1.007812 10.605469 1.421875 9.359375 1.941406 9.046875 C 2.410156 8.734375 3.238281 8.734375 3.707031 8.996094 C 4.175781 9.203125 4.695312 9.929688 4.746094 10.449219 C 4.851562 10.96875 4.488281 11.75 4.121094 12.113281 C 3.863281 12.425781 3.292969 12.578125 2.875 12.578125 C 2.460938 12.632812 1.941406 12.425781 1.628906 12.113281 C 1.316406 11.851562 1.007812 11.386719 1.007812 10.96875 C 1.007812 10.398438 1.265625 9.515625 1.992188 8.996094 C 3.449219 7.957031 8.382812 7.488281 11.394531 7.644531 C 14.253906 7.800781 18.460938 8.683594 19.65625 9.722656 C 20.175781 10.191406 20.332031 10.867188 20.277344 11.386719 C 20.226562 11.90625 19.863281 12.527344 19.292969 12.839844 C 18.5625 13.253906 17.003906 13.203125 15.863281 13.152344 C 14.71875 13.097656 13.421875 12.839844 12.589844 12.578125 C 11.96875 12.371094 11.5 12.320312 11.136719 11.851562 C 10.5625 11.230469 9.992188 9.515625 9.992188 8.683594 C 10.042969 8.214844 10.148438 7.75 10.460938 7.488281 C 10.875 7.125 11.96875 6.761719 12.539062 6.96875 C 13.058594 7.175781 13.523438 8.007812 13.734375 8.683594 C 13.941406 9.464844 13.785156 10.292969 13.578125 11.386719 C 13.214844 13.152344 12.382812 17.359375 11.394531 18.191406 C 10.875 18.554688 10.199219 18.554688 9.734375 18.398438 C 9.265625 18.191406 8.851562 17.828125 8.589844 17.097656 C 7.914062 15.28125 8.226562 8.945312 8.695312 5.984375 C 9.058594 3.957031 9.472656 1.566406 10.355469 0.945312 C 10.824219 0.527344 11.707031 0.582031 12.121094 0.839844 C 12.589844 1.097656 12.851562 2.503906 12.851562 2.503906 " clip-rule="nonzero"/></clipPath><clipPath id="1432a185aa"><rect x="0" width="21" y="0" height="19"/></clipPath><clipPath id="10e9efa9b6"><rect x="0" width="149" y="0" height="149"/></clipPath><clipPath id="8aadcd1245"><path d="M 237 75 L 266 75 L 266 127 L 237 127 Z M 237 75 " clip-rule="nonzero"/></clipPath><clipPath id="f2a2088921"><path d="M 273.128906 40.042969 L 288.449219 47.976562 L 244.992188 131.890625 L 229.675781 123.960938 Z M 273.128906 40.042969 " clip-rule="nonzero"/></clipPath><clipPath id="2c8cddb94e"><path d="M 273.128906 40.042969 L 288.449219 47.976562 L 244.992188 131.890625 L 229.675781 123.960938 Z M 273.128906 40.042969 " clip-rule="nonzero"/></clipPath><clipPath id="5ac91f7d2d"><path d="M 273.128906 40.042969 L 288.449219 47.976562 L 244.992188 131.890625 L 229.675781 123.960938 Z M 273.128906 40.042969 " clip-rule="nonzero"/></clipPath><clipPath id="ef4801dd0b"><path d="M 261 45 L 280 45 L 280 75 L 261 75 Z M 261 45 " clip-rule="nonzero"/></clipPath><clipPath id="26da8a82b9"><path d="M 273.128906 40.042969 L 288.449219 47.976562 L 244.992188 131.890625 L 229.675781 123.960938 Z M 273.128906 40.042969 " clip-rule="nonzero"/></clipPath><clipPath id="19bceafd55"><path d="M 273.128906 40.042969 L 288.449219 47.976562 L 244.992188 131.890625 L 229.675781 123.960938 Z M 273.128906 40.042969 " clip-rule="nonzero"/></clipPath><clipPath id="1349a6fefd"><path d="M 273.128906 40.042969 L 288.449219 47.976562 L 244.992188 131.890625 L 229.675781 123.960938 Z M 273.128906 40.042969 " clip-rule="nonzero"/></clipPath><clipPath id="b1d0e09e12"><path d="M 85 71 L 118 71 L 118 121 L 85 121 Z M 85 71 " clip-rule="nonzero"/></clipPath><clipPath id="305180d718"><path d="M 60.433594 46.800781 L 75.039062 37.617188 L 125.339844 117.617188 L 110.734375 126.800781 Z M 60.433594 46.800781 " clip-rule="nonzero"/></clipPath><clipPath id="8f9a976f13"><path d="M 60.433594 46.800781 L 75.039062 37.617188 L 125.339844 117.617188 L 110.734375 126.800781 Z M 60.433594 46.800781 " clip-rule="nonzero"/></clipPath><clipPath id="51617b48f5"><path d="M 60.433594 46.800781 L 75.039062 37.617188 L 125.339844 117.617188 L 110.734375 126.800781 Z M 60.433594 46.800781 " clip-rule="nonzero"/></clipPath><clipPath id="4594806a14"><path d="M 68 44 L 89 44 L 89 72 L 68 72 Z M 68 44 " clip-rule="nonzero"/></clipPath><clipPath id="b201912ffe"><path d="M 60.433594 46.800781 L 75.039062 37.617188 L 125.339844 117.617188 L 110.734375 126.800781 Z M 60.433594 46.800781 " clip-rule="nonzero"/></clipPath><clipPath id="587f4caff1"><path d="M 60.433594 46.800781 L 75.039062 37.617188 L 125.339844 117.617188 L 110.734375 126.800781 Z M 60.433594 46.800781 " clip-rule="nonzero"/></clipPath><clipPath id="144f673d4b"><path d="M 60.433594 46.800781 L 75.039062 37.617188 L 125.339844 117.617188 L 110.734375 126.800781 Z M 60.433594 46.800781 " clip-rule="nonzero"/></clipPath></defs><path stroke-linecap="butt" transform="matrix(0, -0.75, 0.75, 0, 99.748145, 337.253738)" fill="none" stroke-linejoin="miter" d="M 1.411234 101.637896 C 134.744576 -31.211071 268.077918 -31.211071 401.41126 101.637896 " stroke="#000000" stroke-width="4" stroke-opacity="1" stroke-miterlimit="4"/><path stroke-linecap="butt" transform="matrix(0, 0.75, -0.75, 0, 251.668992, 34.32719)" fill="none" stroke-linejoin="miter" d="M 1.402288 100.933663 C 135.100214 -30.977804 268.798139 -30.977804 402.496065 100.933663 " stroke="#000000" stroke-width="4" stroke-opacity="1" stroke-miterlimit="4"/><g transform="matrix(1, 0, 0, 1, 101, 111)"><g clip-path="url(#10e9efa9b6)"><g clip-path="url(#753c0a8dbc)"><g clip-path="url(#54be9007f5)"><g clip-path="url(#6f8c6f784f)"><path fill="#000000" d="M 76.226562 74 L 76.03125 73.070312 C 76.007812 72.964844 73.777344 62.253906 73.28125 49.933594 C 72.996094 42.660156 73.34375 36.242188 74.332031 30.851562 C 75.617188 23.972656 77.964844 18.714844 81.296875 15.25 C 88.890625 7.363281 101.496094 7.121094 109.382812 14.714844 C 112.3125 17.535156 114.28125 21.160156 115.050781 25.195312 C 115.609375 28.121094 115.519531 31.082031 114.820312 33.90625 C 117.625 33.085938 120.582031 32.882812 123.515625 33.34375 C 127.578125 33.957031 131.273438 35.785156 134.203125 38.605469 C 142.089844 46.195312 142.332031 58.804688 134.738281 66.691406 L 134.730469 66.703125 C 131.382812 70.113281 126.238281 72.613281 119.417969 74.140625 C 114.066406 75.335938 107.679688 75.9375 100.386719 75.941406 C 88.046875 75.945312 77.269531 74.179688 77.164062 74.160156 Z M 107.460938 16.714844 C 100.671875 10.179688 89.828125 10.386719 83.296875 17.175781 C 80.34375 20.242188 78.25 25.003906 77.082031 31.332031 C 76.121094 36.503906 75.777344 42.722656 76.058594 49.789062 C 76.460938 59.789062 78.027344 68.730469 78.574219 71.5625 C 81.433594 71.992188 90.417969 73.164062 100.429688 73.160156 C 107.5 73.152344 113.679688 72.570312 118.820312 71.425781 C 125.097656 70.011719 129.777344 67.785156 132.730469 64.757812 C 139.261719 57.972656 139.046875 47.136719 132.257812 40.605469 C 127.222656 35.757812 119.550781 34.507812 113.144531 37.484375 L 109.890625 39.003906 L 111.296875 35.707031 C 114.023438 29.191406 112.496094 21.558594 107.460938 16.714844 Z M 107.460938 16.714844 " fill-opacity="1" fill-rule="nonzero"/></g></g></g><g clip-path="url(#dd49795bce)"><g clip-path="url(#8ac8ac100f)"><g clip-path="url(#27cffb3e22)"><g clip-path="url(#cb68102d7f)"><path fill="#100f0d" d="M 97.019531 50.796875 C 97.054688 50.859375 98.226562 53.039062 104.003906 46.359375 L 119.167969 48.886719 L 121.300781 47.0625 L 108.597656 41.820312 L 114.960938 35.359375 L 119.332031 36.265625 L 120.773438 35.117188 L 116.503906 32.410156 L 116.511719 32.402344 L 113.898438 28.09375 L 112.679688 29.46875 L 113.441406 33.792969 L 106.636719 39.800781 L 101.765625 27.144531 L 99.832031 29.167969 L 101.851562 44.148438 C 95.492188 49.074219 96.699219 50.542969 97.019531 50.796875 " fill-opacity="1" fill-rule="nonzero"/></g></g></g></g><g clip-path="url(#ddf84fa11e)"><g clip-path="url(#76d0e8688c)"><g clip-path="url(#36e3749496)"><path fill="#000000" d="M 75.730469 75.84375 L 76.664062 75.664062 C 76.769531 75.644531 87.523438 73.617188 99.847656 73.355469 C 107.128906 73.210938 113.539062 73.679688 118.910156 74.773438 C 125.761719 76.1875 130.972656 78.632812 134.371094 82.03125 C 142.113281 89.773438 142.113281 102.382812 134.371094 110.125 C 131.5 113 127.835938 114.898438 123.789062 115.589844 C 120.851562 116.09375 117.890625 115.945312 115.082031 115.191406 C 115.847656 118.011719 115.992188 120.972656 115.480469 123.898438 C 114.789062 127.949219 112.890625 131.609375 110.015625 134.484375 C 102.273438 142.226562 89.664062 142.226562 81.921875 134.484375 L 81.910156 134.472656 C 78.5625 131.0625 76.164062 125.871094 74.765625 119.019531 C 73.675781 113.648438 73.195312 107.25 73.328125 99.960938 C 73.5625 87.625 75.53125 76.882812 75.554688 76.777344 Z M 132.410156 108.164062 C 139.074219 101.5 139.074219 90.65625 132.410156 83.992188 C 129.402344 80.984375 124.679688 78.800781 118.375 77.511719 C 113.222656 76.449219 107.015625 75.988281 99.945312 76.136719 C 89.9375 76.347656 80.964844 77.742188 78.125 78.234375 C 77.640625 81.085938 76.296875 90.046875 76.109375 100.054688 C 75.984375 107.125 76.445312 113.3125 77.496094 118.476562 C 78.785156 124.78125 80.925781 129.5 83.894531 132.511719 C 90.554688 139.171875 101.390625 139.160156 108.050781 132.5 C 112.992188 127.558594 114.390625 119.914062 111.535156 113.449219 L 110.078125 110.167969 L 113.351562 111.636719 C 119.8125 114.488281 127.46875 113.105469 132.410156 108.164062 Z M 132.410156 108.164062 " fill-opacity="1" fill-rule="nonzero"/></g></g></g><g clip-path="url(#16eda81c01)"><g clip-path="url(#4979018d4c)"><g clip-path="url(#d562e1837b)"><g clip-path="url(#96bd4dd281)"><path fill="#100f0d" d="M 98.667969 97.507812 C 98.605469 97.539062 96.429688 98.714844 103.109375 104.484375 L 100.59375 119.652344 L 102.417969 121.785156 L 107.652344 109.078125 L 114.117188 115.433594 L 113.21875 119.808594 L 114.363281 121.246094 L 117.070312 116.976562 L 117.078125 116.980469 L 121.382812 114.367188 L 120.007812 113.148438 L 115.683594 113.914062 L 109.671875 107.113281 L 122.324219 102.230469 L 120.296875 100.300781 L 105.320312 102.332031 C 100.390625 95.976562 98.921875 97.183594 98.667969 97.507812 " fill-opacity="1" fill-rule="nonzero"/></g></g></g></g><g clip-path="url(#c9d58049d2)"><g clip-path="url(#48f81168c2)"><g clip-path="url(#4c507bd803)"><path fill="#000000" d="M 73.851562 76.230469 L 74.015625 77.164062 C 74.035156 77.269531 75.921875 88.046875 76.023438 100.375 C 76.078125 107.65625 75.523438 114.0625 74.363281 119.417969 C 72.859375 126.25 70.347656 131.429688 66.90625 134.785156 C 59.0625 142.425781 46.457031 142.265625 38.8125 134.421875 C 35.976562 131.511719 34.125 127.828125 33.484375 123.769531 C 33.019531 120.824219 33.207031 117.867188 33.996094 115.066406 C 31.164062 115.796875 28.207031 115.90625 25.285156 115.355469 C 21.246094 114.609375 17.609375 112.664062 14.773438 109.753906 C 7.128906 101.910156 7.292969 89.300781 15.132812 81.660156 L 15.144531 81.652344 C 18.597656 78.347656 23.820312 76.015625 30.6875 74.707031 C 36.074219 73.683594 42.476562 73.285156 49.765625 73.515625 C 62.097656 73.90625 72.8125 76.015625 72.917969 76.039062 Z M 40.800781 132.488281 C 47.375 139.234375 58.222656 139.375 64.96875 132.796875 C 68.019531 129.828125 70.261719 125.132812 71.632812 118.847656 C 72.757812 113.710938 73.300781 107.507812 73.242188 100.433594 C 73.164062 90.425781 71.882812 81.4375 71.429688 78.589844 C 68.582031 78.070312 59.640625 76.613281 49.636719 76.292969 C 42.566406 76.078125 36.371094 76.460938 31.199219 77.441406 C 24.878906 78.648438 20.128906 80.730469 17.082031 83.660156 C 10.335938 90.234375 10.203125 101.070312 16.78125 107.816406 C 21.65625 112.820312 29.285156 114.3125 35.785156 111.542969 L 39.085938 110.128906 L 37.574219 113.382812 C 34.636719 119.808594 35.925781 127.480469 40.800781 132.488281 Z M 40.800781 132.488281 " fill-opacity="1" fill-rule="nonzero"/></g></g></g><g clip-path="url(#2b5c8462c5)"><g clip-path="url(#c904a769f9)"><g clip-path="url(#ddfdaa48a0)"><g clip-path="url(#22047c70fc)"><path fill="#100f0d" d="M 50.691406 97.796875 C 50.65625 97.734375 49.425781 95.589844 43.832031 102.417969 L 28.601562 100.296875 L 26.519531 102.179688 L 39.359375 107.078125 L 33.171875 113.707031 L 28.777344 112.921875 L 27.367188 114.105469 L 31.707031 116.699219 L 31.699219 116.707031 L 34.425781 120.941406 L 35.609375 119.539062 L 34.730469 115.234375 L 41.375 109.046875 L 46.582031 121.570312 L 48.460938 119.492188 L 46.039062 104.574219 C 52.265625 99.480469 51.023438 98.042969 50.691406 97.796875 " fill-opacity="1" fill-rule="nonzero"/></g></g></g></g><g clip-path="url(#0b580f9f2e)"><g clip-path="url(#34046a6dbe)"><g clip-path="url(#82fa2eb4d4)"><path fill="#000000" d="M 73.742188 73.625 L 72.808594 73.804688 C 72.707031 73.824219 61.953125 75.851562 49.625 76.113281 C 42.347656 76.261719 35.9375 75.789062 30.566406 74.695312 C 23.714844 73.28125 18.5 70.835938 15.101562 67.4375 C 7.359375 59.695312 7.359375 47.085938 15.101562 39.34375 C 17.976562 36.46875 21.636719 34.570312 25.6875 33.878906 C 28.625 33.375 31.582031 33.523438 34.394531 34.277344 C 33.628906 31.457031 33.480469 28.496094 33.996094 25.570312 C 34.6875 21.519531 36.585938 17.859375 39.460938 14.984375 C 47.203125 7.246094 59.8125 7.246094 67.554688 14.984375 L 67.566406 14.996094 C 70.910156 18.40625 73.3125 23.597656 74.707031 30.449219 C 75.800781 35.820312 76.28125 42.21875 76.144531 49.507812 C 75.914062 61.847656 73.941406 72.589844 73.921875 72.691406 Z M 17.066406 41.304688 C 10.402344 47.96875 10.402344 58.816406 17.066406 65.476562 C 20.074219 68.488281 24.796875 70.667969 31.101562 71.957031 C 36.25 73.019531 42.460938 73.480469 49.53125 73.332031 C 59.539062 73.125 68.507812 71.726562 71.351562 71.234375 C 71.835938 68.382812 73.175781 59.421875 73.367188 49.414062 C 73.492188 42.34375 73.03125 36.15625 71.980469 30.996094 C 70.691406 24.691406 68.550781 19.96875 65.582031 16.957031 C 58.921875 10.296875 48.085938 10.308594 41.421875 16.96875 C 36.480469 21.910156 35.085938 29.558594 37.941406 36.019531 L 39.398438 39.300781 L 36.125 37.832031 C 29.664062 34.980469 22.003906 36.363281 17.066406 41.304688 Z M 17.066406 41.304688 " fill-opacity="1" fill-rule="nonzero"/></g></g></g><g clip-path="url(#50eb5cb998)"><g clip-path="url(#e320d8063f)"><g clip-path="url(#e891e46815)"><g clip-path="url(#00a02d534b)"><path fill="#100f0d" d="M 52.765625 50.457031 C 52.824219 50.417969 54.914062 49.089844 47.835938 43.8125 L 49.265625 28.503906 L 47.292969 26.507812 L 42.976562 39.554688 L 36.074219 33.675781 L 36.664062 29.25 L 35.414062 27.894531 L 33.023438 32.347656 L 33.015625 32.34375 L 28.90625 35.257812 L 30.363281 36.375 L 34.621094 35.300781 L 41.105469 41.65625 L 28.832031 47.429688 L 30.992188 49.210938 L 45.785156 46.117188 C 51.15625 52.105469 52.535156 50.796875 52.765625 50.457031 " fill-opacity="1" fill-rule="nonzero"/></g></g></g></g><g clip-path="url(#86a5a6cd4e)"><g clip-path="url(#261aaa4b79)"><g transform="matrix(1, 0, 0, 1, 64, 64)"><g clip-path="url(#1432a185aa)"><g clip-path="url(#be44eb26e3)"><g clip-path="url(#663176b127)"><rect x="-301.5" width="648" fill="#000000" y="-311.499997" height="647.999984" fill-opacity="1"/></g></g></g></g></g></g></g></g><g clip-path="url(#8aadcd1245)"><g clip-path="url(#f2a2088921)"><g clip-path="url(#2c8cddb94e)"><g clip-path="url(#5ac91f7d2d)"><path fill="#000000" d="M 237.40625 124.882812 C 237.5625 125.355469 237.855469 125.703125 238.292969 125.933594 C 238.503906 126.042969 238.726562 126.105469 238.964844 126.125 C 239.203125 126.144531 239.433594 126.117188 239.660156 126.042969 C 239.886719 125.96875 240.09375 125.855469 240.277344 125.699219 C 240.460938 125.542969 240.605469 125.359375 240.71875 125.144531 L 265.738281 76.828125 L 262.554688 75.179688 L 237.535156 123.5 C 237.304688 123.945312 237.261719 124.40625 237.40625 124.882812 Z M 237.40625 124.882812 " fill-opacity="1" fill-rule="nonzero"/></g></g></g></g><g clip-path="url(#ef4801dd0b)"><g clip-path="url(#26da8a82b9)"><g clip-path="url(#19bceafd55)"><g clip-path="url(#1349a6fefd)"><path fill="#000000" d="M 276.65625 70.546875 L 279.746094 45.878906 L 261.386719 62.640625 L 263.308594 71.820312 L 268.046875 74.273438 Z M 276.65625 70.546875 " fill-opacity="1" fill-rule="nonzero"/></g></g></g></g><g clip-path="url(#b1d0e09e12)"><g clip-path="url(#305180d718)"><g clip-path="url(#8f9a976f13)"><g clip-path="url(#51617b48f5)"><path fill="#000000" d="M 115.453125 120.601562 C 115.9375 120.710938 116.386719 120.632812 116.804688 120.375 C 117.007812 120.246094 117.175781 120.085938 117.3125 119.890625 C 117.449219 119.695312 117.542969 119.484375 117.59375 119.25 C 117.644531 119.015625 117.652344 118.78125 117.609375 118.542969 C 117.570312 118.308594 117.484375 118.089844 117.355469 117.882812 L 88.394531 71.820312 L 85.359375 73.726562 L 114.324219 119.789062 C 114.589844 120.214844 114.96875 120.488281 115.453125 120.601562 Z M 115.453125 120.601562 " fill-opacity="1" fill-rule="nonzero"/></g></g></g></g><g clip-path="url(#4594806a14)"><g clip-path="url(#b201912ffe)"><g clip-path="url(#587f4caff1)"><g clip-path="url(#144f673d4b)"><path fill="#000000" d="M 88.515625 59.226562 L 68.820312 44.054688 L 73.960938 68.378906 L 82.847656 71.375 L 87.363281 68.535156 Z M 88.515625 59.226562 " fill-opacity="1" fill-rule="nonzero"/></g></g></g></g><path stroke-linecap="butt" transform="matrix(0.428162, -0.615774, 0.615774, 0.428162, 109.269857, 336.185983)" fill="none" stroke-linejoin="miter" d="M -0.00208961 2.500322 L 70.951006 2.49947 " stroke="#000000" stroke-width="5" stroke-opacity="1" stroke-miterlimit="4"/><path stroke-linecap="butt" transform="matrix(-0.478944, -0.577159, 0.577159, -0.478944, 245.940192, 338.454763)" fill="none" stroke-linejoin="miter" d="M -0.000185597 2.499366 L 73.383122 2.502804 " stroke="#000000" stroke-width="5" stroke-opacity="1" stroke-miterlimit="4"/></svg>